<svg width="126" height="42" viewBox="0 0 126 42" fill="none" xmlns="http://www.w3.org/2000/svg">
<path d="M116.714 24.5713C115.227 24.5713 113.807 24.4149 112.453 24.102C111.118 23.7892 109.974 23.3286 109.021 22.7203L110.994 19.253C111.643 19.7222 112.443 20.0872 113.397 20.3479C114.369 20.626 115.313 20.765 116.228 20.765C117.696 20.765 118.755 20.4696 119.403 19.8786C120.051 19.3051 120.375 18.4622 120.375 17.3498V15.6813L120.661 11.7186L120.633 7.7299V5.14894H125.809V16.6981C125.809 19.3746 125.018 21.356 123.436 22.6421C121.853 23.9282 119.613 24.5713 116.714 24.5713ZM115.771 18.5491C114.398 18.5491 113.13 18.271 111.967 17.7148C110.823 17.1413 109.898 16.3505 109.192 15.3424C108.506 14.317 108.163 13.1091 108.163 11.7186C108.163 10.3282 108.506 9.129 109.192 8.12095C109.898 7.09552 110.823 6.30472 111.967 5.74855C113.13 5.19239 114.398 4.91431 115.771 4.91431C117.086 4.91431 118.211 5.15763 119.145 5.64427C120.08 6.11354 120.785 6.8522 121.262 7.86025C121.758 8.8683 122.006 10.1544 122.006 11.7186C122.006 13.2829 121.758 14.569 121.262 15.577C120.785 16.5851 120.08 17.3324 119.145 17.8191C118.211 18.3057 117.086 18.5491 115.771 18.5491ZM117.058 14.6124C117.706 14.6124 118.278 14.4908 118.774 14.2475C119.289 14.0041 119.689 13.6652 119.975 13.2307C120.28 12.7962 120.433 12.2922 120.433 11.7186C120.433 11.1451 120.28 10.6411 119.975 10.2066C119.689 9.77207 119.289 9.44184 118.774 9.2159C118.278 8.97258 117.706 8.85092 117.058 8.85092C116.409 8.85092 115.828 8.97258 115.313 9.2159C114.798 9.44184 114.388 9.77207 114.083 10.2066C113.797 10.6411 113.654 11.1451 113.654 11.7186C113.654 12.2922 113.797 12.7962 114.083 13.2307C114.388 13.6652 114.798 14.0041 115.313 14.2475C115.828 14.4908 116.409 14.6124 117.058 14.6124Z" fill="#FF8552"/>
<path d="M101.987 4.91431C103.188 4.91431 104.275 5.14025 105.247 5.59213C106.22 6.02664 106.983 6.70446 107.535 7.62561C108.107 8.54676 108.393 9.7373 108.393 11.1972V19.279H102.959V12.0054C102.959 10.9974 102.731 10.2674 102.273 9.81551C101.834 9.34625 101.215 9.11161 100.414 9.11161C99.8419 9.11161 99.3175 9.23328 98.8408 9.4766C98.3642 9.70254 97.9924 10.0588 97.7254 10.5455C97.4585 11.0321 97.325 11.6665 97.325 12.4486V19.279H91.8909V5.14894H97.0676V9.16376L96.0666 7.99059C96.6577 6.96517 97.468 6.20044 98.4976 5.69641C99.5273 5.17501 100.69 4.91431 101.987 4.91431Z" fill="#FF8552"/>
<path d="M81.4606 19.5122C80.2022 19.5122 79.0677 19.2862 78.0571 18.8343C77.0656 18.3825 76.2839 17.6786 75.7119 16.7226C75.1589 15.7494 74.8824 14.5241 74.8824 13.0467V5.14746H80.3166V12.2386C80.3166 13.3335 80.5358 14.1156 80.9744 14.5849C81.432 15.0542 82.0707 15.2888 82.8906 15.2888C83.4245 15.2888 83.9107 15.1758 84.3493 14.9499C84.7878 14.7239 85.1405 14.3676 85.4075 13.881C85.6744 13.377 85.8079 12.7339 85.8079 11.9518V5.14746H91.242V19.2775H86.0653V15.2888L87.0663 16.4098C86.5324 17.4526 85.7602 18.2347 84.7497 18.7561C83.7391 19.2602 82.6428 19.5122 81.4606 19.5122Z" fill="#FF8552"/>
<path d="M67.7943 19.5137C66.4787 19.5137 65.1917 19.3746 63.9332 19.0965C62.6939 18.8184 61.6929 18.4708 60.9302 18.0537L62.5604 14.6646C63.285 15.0643 64.1334 15.3859 65.1059 15.6292C66.0783 15.8551 67.0316 15.9681 67.9659 15.9681C68.8811 15.9681 69.5104 15.8812 69.8536 15.7074C70.2158 15.5336 70.397 15.299 70.397 15.0035C70.397 14.7254 70.2254 14.5255 69.8822 14.4039C69.558 14.2648 69.1195 14.1606 68.5665 14.091C68.0327 14.0215 67.4416 13.9433 66.7933 13.8564C66.145 13.7695 65.4872 13.6565 64.8199 13.5175C64.1716 13.3611 63.571 13.1351 63.018 12.8397C62.4841 12.5268 62.0551 12.1097 61.731 11.5883C61.4069 11.0669 61.2448 10.4064 61.2448 9.60695C61.2448 8.70319 61.5308 7.9037 62.1028 7.20849C62.6939 6.4959 63.5519 5.93974 64.6769 5.53999C65.8018 5.12287 67.1746 4.91431 68.7954 4.91431C69.8822 4.91431 70.9785 5.01859 72.0844 5.22715C73.2094 5.41833 74.1532 5.71379 74.9159 6.11354L73.2856 9.4766C72.523 9.07686 71.7603 8.80747 70.9976 8.66843C70.2349 8.512 69.5104 8.43379 68.8239 8.43379C67.9087 8.43379 67.2604 8.52938 66.8791 8.72056C66.5168 8.91175 66.3357 9.14638 66.3357 9.42446C66.3357 9.70254 66.4978 9.9198 66.8219 10.0762C67.146 10.2153 67.5751 10.3282 68.1089 10.4151C68.6619 10.4847 69.2625 10.5629 69.9108 10.6498C70.5591 10.7193 71.2073 10.8323 71.8556 10.9887C72.523 11.1451 73.1236 11.3797 73.6575 11.6926C74.2104 11.988 74.6489 12.3965 74.9731 12.9179C75.2972 13.4219 75.4593 14.0737 75.4593 14.8731C75.4593 15.7422 75.1638 16.5243 74.5727 17.2195C74.0007 17.9147 73.1426 18.4708 71.9986 18.888C70.8737 19.3051 69.4722 19.5137 67.7943 19.5137Z" fill="#FF8552"/>
<path d="M55.5332 2.71326C56.7345 2.71326 57.602 5.13996 58.5363 5.59185C59.4897 6.02635 60.2333 6.70418 60.7672 7.62533C61.3201 8.54648 61.5966 9.73702 61.5966 11.197V19.2787H56.1625V12.0051C56.1625 10.9971 55.9527 10.2671 55.5332 9.81523C55.1138 9.34597 54.5418 9.11133 53.8172 9.11133C53.3024 9.11133 52.8353 9.2243 52.4158 9.45025C51.9963 9.67619 51.6722 10.0238 51.4434 10.4931C51.2146 10.9449 51.1001 11.5359 51.1001 12.2658V19.2787H45.666V12.0051C45.666 10.9971 45.4563 10.2671 45.0368 9.81523C44.6364 9.34597 44.0644 9.11133 43.3208 9.11133C42.7869 9.11133 42.3102 9.2243 41.8907 9.45025C41.4903 9.67619 41.1662 10.0238 40.9183 10.4931C40.6895 10.9449 40.5751 11.5359 40.5751 12.2658V19.2787H35.141V5.14865H40.3177V9.08526L39.2881 7.96424C39.8601 6.95619 40.6418 6.20015 41.6333 5.69613C42.6248 5.17472 43.8165 2.71326 45.0368 2.71326C46.4287 2.71326 47.5632 5.24425 48.6119 5.90469C49.6797 6.54776 50.3947 7.55581 50.7569 8.92884L48.9837 8.58993C49.5366 7.44284 50.3661 6.54776 51.472 5.90469C52.5969 5.24425 54.0841 2.71326 55.5332 2.71326Z" fill="#FF8552"/>
<path d="M29.5067 19.279V16.6459L29.1349 15.9942V11.1451C29.1349 10.363 28.868 9.76338 28.3341 9.34625C27.8193 8.91175 26.9899 8.69449 25.8459 8.69449C25.1023 8.69449 24.3491 8.80747 23.5864 9.03341C22.8237 9.24197 22.1755 9.53743 21.6416 9.9198L19.8111 6.55673C20.6882 6.03533 21.7369 5.63558 22.9572 5.3575C24.1966 5.06204 25.4264 4.91431 26.6467 4.91431C29.1635 4.91431 31.1084 5.4444 32.4812 6.50459C33.8731 7.5474 34.5691 9.18983 34.5691 11.4319V19.279H29.5067ZM24.9306 19.5137C23.6913 19.5137 22.6426 19.3225 21.7846 18.9401C20.9266 18.5577 20.2687 18.0363 19.8111 17.3759C19.3726 16.7154 19.1533 15.9768 19.1533 15.1599C19.1533 14.2909 19.3917 13.5436 19.8683 12.9179C20.3641 12.2748 21.1172 11.7882 22.1278 11.4579C23.1383 11.1103 24.4444 10.9365 26.0461 10.9365H29.707V13.5175H26.7897C25.9126 13.5175 25.2929 13.6478 24.9306 13.9085C24.5874 14.1693 24.4158 14.5169 24.4158 14.9514C24.4158 15.3859 24.597 15.7335 24.9592 15.9942C25.3215 16.2549 25.8173 16.3852 26.4465 16.3852C27.0376 16.3852 27.5714 16.2549 28.0481 15.9942C28.5439 15.7161 28.9061 15.299 29.1349 14.7428L29.8786 16.5677C29.5926 17.541 29.0301 18.2797 28.1911 18.7837C27.3712 19.2703 26.2844 19.5137 24.9306 19.5137Z" fill="#FF8552"/>
<path d="M11.1535 19.6426C9.57092 19.6426 8.10276 19.4167 6.74899 18.9648C5.39523 18.4955 4.22261 17.8351 3.23112 16.9834C2.2587 16.1318 1.49601 15.1324 0.943066 13.9853C0.39012 12.8209 0.113647 11.5434 0.113647 10.153C0.113647 8.76261 0.39012 7.49386 0.943066 6.34677C1.49601 5.1823 2.26823 4.17424 3.25972 3.32262C4.25121 2.47099 5.42383 1.81923 6.7776 1.36735C8.15043 0.898084 9.64719 0.663452 11.2679 0.663452C13.1555 0.663452 14.843 0.950225 16.3302 1.52377C17.8174 2.09732 19.0473 2.92287 20.0197 4.00044L16.416 6.97245C15.7296 6.29462 14.986 5.7906 14.1852 5.46038C13.4034 5.11277 12.5263 4.93897 11.5539 4.93897C10.6959 4.93897 9.91413 5.06063 9.20865 5.30396C8.50317 5.54728 7.90255 5.90357 7.40681 6.37284C6.91106 6.82472 6.52019 7.3722 6.23418 8.01526C5.96724 8.64095 5.83377 9.35353 5.83377 10.153C5.83377 10.9177 5.96724 11.6216 6.23418 12.2647C6.52019 12.9078 6.91106 13.4639 7.40681 13.9332C7.90255 14.3851 8.49363 14.7414 9.18005 15.0021C9.88553 15.2454 10.6577 15.3671 11.4967 15.3671C12.3357 15.3671 13.1555 15.2454 13.9564 15.0021C14.7572 14.7414 15.5675 14.3069 16.3874 13.6986L19.5621 17.3223C18.4181 18.0697 17.0929 18.6432 15.5866 19.043C14.0803 19.4427 12.6026 19.6426 11.1535 19.6426ZM14.557 16.6445V9.76197H19.5621V17.3223L14.557 16.6445Z" fill="#FF8552"/>
<path d="M7.0607 42C5.65558 42 4.31194 41.7942 3.02978 41.3827C1.74761 40.954 0.737685 40.4052 0 39.7365L0.974797 37.7302C1.67735 38.3304 2.57311 38.8277 3.66208 39.2221C4.75104 39.6165 5.88391 39.8137 7.0607 39.8137C8.13209 39.8137 9.00151 39.6936 9.66894 39.4536C10.3364 39.2135 10.8282 38.8877 11.1443 38.4761C11.4605 38.0475 11.6185 37.5673 11.6185 37.0358C11.6185 36.4184 11.4078 35.9212 10.9862 35.5439C10.5823 35.1667 10.0466 34.8666 9.37913 34.6437C8.72927 34.4036 8.00915 34.1978 7.21877 34.0264C6.42839 33.8549 5.62924 33.6577 4.8213 33.4348C4.03092 33.1947 3.30202 32.8946 2.63459 32.5345C1.98472 32.1744 1.45781 31.6943 1.05384 31.0941C0.649865 30.4768 0.44788 29.688 0.44788 28.7278C0.44788 27.8018 0.693775 26.953 1.18556 26.1813C1.69492 25.3926 2.46773 24.7667 3.504 24.3037C4.55784 23.8236 5.8927 23.5835 7.50858 23.5835C8.57997 23.5835 9.64259 23.7207 10.6964 23.995C11.7503 24.2694 12.6636 24.6638 13.4364 25.1782L12.567 27.2359C11.7766 26.7215 10.9423 26.3528 10.0641 26.1299C9.18593 25.8898 8.33408 25.7698 7.50858 25.7698C6.4723 25.7698 5.62045 25.8984 4.95303 26.1556C4.2856 26.4128 3.79381 26.7558 3.47766 27.1845C3.17907 27.6132 3.02978 28.0933 3.02978 28.6249C3.02978 29.2593 3.23176 29.7652 3.63573 30.1424C4.05727 30.5197 4.59297 30.8198 5.24283 31.0427C5.91026 31.2656 6.63916 31.4714 7.42954 31.66C8.21991 31.8315 9.01029 32.0287 9.80067 32.2516C10.6086 32.4745 11.3375 32.766 11.9874 33.1261C12.6548 33.4862 13.1905 33.9663 13.5945 34.5665C13.9984 35.1667 14.2004 35.9383 14.2004 36.8814C14.2004 37.7902 13.9458 38.639 13.4364 39.4278C12.927 40.1995 12.1367 40.8254 11.0653 41.3055C10.0114 41.7685 8.67658 42 7.0607 42Z" fill="#E6E6E6"/>
<path d="M23.0349 41.7942V26.027H16.7119V23.7893H31.9662V26.027H25.6432V41.7942H23.0349Z" fill="#E6E6E6"/>
<path d="M32.6975 41.7942L41.0491 23.7893H43.6574L52.0354 41.7942H49.2691L41.8132 25.2297H42.867L35.4111 41.7942H32.6975ZM36.2542 37.293L36.9655 35.2353H47.3458L48.1098 37.293H36.2542Z" fill="#E6E6E6"/>
<path d="M59.1031 41.7942V26.027H52.7801V23.7893H68.0343V26.027H61.7113V41.7942H59.1031Z" fill="#E6E6E6"/>
<path d="M72.4845 41.7942V23.7893H75.1191V41.7942H72.4845Z" fill="#E6E6E6"/>
<path d="M90.5465 42C89.1413 42 87.8328 41.7685 86.6209 41.3055C85.4266 40.8425 84.3903 40.1995 83.5121 39.3764C82.6339 38.5362 81.9489 37.5588 81.4571 36.4442C80.9653 35.3296 80.7194 34.1121 80.7194 32.7917C80.7194 31.4714 80.9653 30.2539 81.4571 29.1393C81.9489 28.0247 82.6339 27.0559 83.5121 26.2328C84.3903 25.3926 85.4266 24.741 86.6209 24.278C87.8153 23.815 89.1238 23.5835 90.5465 23.5835C91.9516 23.5835 93.2425 23.815 94.4193 24.278C95.6137 24.7238 96.6499 25.3668 97.5281 26.2071C98.4239 27.0302 99.1089 27.999 99.5831 29.1136C100.075 30.2282 100.321 31.4542 100.321 32.7917C100.321 34.1292 100.075 35.3553 99.5831 36.4699C99.1089 37.5845 98.4239 38.5619 97.5281 39.4021C96.6499 40.2252 95.6137 40.8682 94.4193 41.3312C93.2425 41.7771 91.9516 42 90.5465 42ZM90.5465 39.7108C91.5652 39.7108 92.5048 39.5393 93.3655 39.1963C94.2437 38.8534 94.9989 38.3733 95.6312 37.7559C96.2811 37.1215 96.7816 36.3841 97.1329 35.5439C97.5018 34.7037 97.6862 33.7863 97.6862 32.7917C97.6862 31.7972 97.5018 30.8798 97.1329 30.0396C96.7816 29.1993 96.2811 28.4705 95.6312 27.8532C94.9989 27.2188 94.2437 26.7301 93.3655 26.3871C92.5048 26.0442 91.5652 25.8727 90.5465 25.8727C89.5102 25.8727 88.553 26.0442 87.6748 26.3871C86.8141 26.7301 86.0589 27.2188 85.409 27.8532C84.7592 28.4705 84.2498 29.1993 83.881 30.0396C83.5297 30.8798 83.354 31.7972 83.354 32.7917C83.354 33.7863 83.5297 34.7037 83.881 35.5439C84.2498 36.3841 84.7592 37.1215 85.409 37.7559C86.0589 38.3733 86.8141 38.8534 87.6748 39.1963C88.553 39.5393 89.5102 39.7108 90.5465 39.7108Z" fill="#E6E6E6"/>
<path d="M105.928 41.7942V23.7893H108.089L120.287 38.579H119.154V23.7893H121.789V41.7942H119.628L107.43 27.0044H108.563V41.7942H105.928Z" fill="#E6E6E6"/>
</svg>
